<svg width="49" height="46" viewBox="0 0 49 46" fill="none" xmlns="http://www.w3.org/2000/svg">
<path d="M20.0544 45.9035C13.9619 45.1493 8.4424 41.9869 4.67089 37.0912C2.5602 34.3495 0.935763 30.7375 0.362708 27.5247C0.0871653 25.9507 0 24.8629 0 23.0425C0 18.9375 0.718211 15.833 2.45863 12.3879C5.52669 6.3173 11.3653 1.83478 18.0309 0.449507C19.8225 0.0723926 20.6203 -4.3968e-06 22.9194 -4.3968e-06C24.5658 0.00719931 25.2692 0.0363743 25.9654 0.130383C30.6147 0.790243 34.6402 2.6398 38.1142 5.70066C39.0715 6.54205 39.6082 7.10034 39.7822 7.42703C39.8765 7.61577 39.8982 7.81135 39.8765 8.27563C39.8549 8.92108 39.7386 9.13143 39.2963 9.36375C39.0643 9.47973 38.1794 9.5017 37.889 9.39293C37.7803 9.34934 37.316 8.95062 36.8517 8.50074C36.3874 8.05123 35.7492 7.47097 35.43 7.20984C31.9197 4.34492 27.3284 2.6913 22.8823 2.69851C17.5515 2.69851 12.4235 4.8816 8.60124 8.77665C7.09278 10.3143 6.01907 11.7939 5.03288 13.7087C3.87956 15.9425 3.2053 18.0604 2.857 20.5627C2.68303 21.8028 2.68303 24.189 2.857 25.3859C3.56764 30.2671 5.65672 34.3798 9.0947 37.6578C12.7502 41.1394 17.4283 43.1337 22.3387 43.3152C27.7131 43.504 33.1965 41.2337 37.1784 37.1647C38.4041 35.9098 39.028 35.1048 40.1593 33.3352C40.4712 32.8493 40.7396 32.7333 41.501 32.7622C42.0521 32.7838 42.065 32.8111 42.2318 32.9707C42.5365 33.2607 42.682 33.493 42.7195 34.0315C42.7195 34.6405 42.5671 34.9888 41.8565 36.0334C39.3615 39.6961 35.9163 42.5174 31.7965 44.2798C30.3024 44.9253 28.3077 45.5055 26.5381 45.8102C25.7695 45.9482 25.3052 45.9698 23.2817 45.9914C21.5193 46.0058 20.7067 45.9842 20.0541 45.9043L20.0544 45.9035Z" fill="url(#paint0_linear_2175_175)"/>
<path d="M23.6465 38.273C23.5133 38.1102 23.0716 37.169 21.9159 34.5536C20.3609 31.0373 18.9995 28.0094 18.9489 27.9475C18.9168 27.9082 17.7751 27.4176 16.4042 26.8526C15.0331 26.2873 13.3705 25.5951 12.7024 25.317C11.6041 24.8566 10.975 24.6029 9.14779 23.8579C8.76648 23.7012 8.50884 23.5466 8.3987 23.412C8.24705 23.2266 8.24452 23.2007 8.39061 23.0812C8.47481 23.0123 10.1116 22.264 12.0304 21.4251C13.9392 20.5855 16.2469 19.569 17.1533 19.165L18.7992 18.4278L20.7897 13.5293C21.8796 10.8295 22.8195 8.49585 22.8709 8.34126C22.927 8.19203 23.0663 7.98457 23.1842 7.8881C23.3752 7.73189 23.4011 7.72936 23.5205 7.87545C23.594 7.96522 23.8513 8.48577 24.0906 9.03037C24.3299 9.57496 24.906 10.8748 25.3634 11.9153C25.8266 12.9515 26.4444 14.348 26.7338 15.0112C27.0285 15.6696 27.4735 16.683 27.7209 17.2489L28.1841 18.2851L31.6275 19.7226C33.5221 20.5154 35.6832 21.4275 36.4299 21.7447C37.1765 22.0618 37.9685 22.3884 38.1869 22.4722C38.4053 22.556 38.6528 22.7096 38.7308 22.8049C38.8685 22.9733 38.8619 22.988 38.6428 23.1672C38.5193 23.2683 37.9389 23.5554 37.3629 23.8018C36.2704 24.2645 30.3522 26.8471 29.1168 27.3984L28.4155 27.7096L27.8617 29.0714C27.5549 29.8188 27.0846 30.9624 26.8187 31.6113C26.5526 32.2599 26.1709 33.1905 25.9733 33.6708C24.2432 37.925 24.1693 38.0981 23.9727 38.2588C23.7932 38.4057 23.7569 38.4079 23.6465 38.273Z" fill="url(#paint1_linear_2175_175)"/>
<path d="M9.48549 33.0524C9.59445 32.9678 10.0017 32.7711 10.4051 32.6047L11.1298 32.3082L11.4968 31.5276C11.9281 30.6048 12.2018 30.3189 12.4019 30.5767C12.4686 30.6626 12.6597 31.0742 12.8248 31.4878L13.1379 32.2456L13.9664 32.6032C14.4821 32.818 14.8495 33.0193 14.9341 33.1282C15.0587 33.2887 15.0549 33.319 14.8828 33.4527C14.7855 33.5282 14.3609 33.7384 13.9417 33.908L13.1939 34.2223L12.844 34.9897C12.6119 35.5188 12.4416 35.8075 12.2982 35.9188C12.0919 36.079 12.0818 36.0777 11.9217 35.8715C11.8282 35.7511 11.6372 35.3395 11.4884 34.9588L11.2187 34.2685L10.4137 33.9295C9.85844 33.6995 9.55404 33.5318 9.44734 33.3944C9.30508 33.2112 9.3074 33.1907 9.4852 33.0527L9.48549 33.0524Z" fill="url(#paint2_linear_2175_175)"/>
<path d="M38.5454 19.2787C38.6019 19.2341 39.1826 18.9799 39.8404 18.7072C41.3834 18.0664 41.7584 17.8904 41.8559 17.7641C41.8978 17.71 42.0729 17.3254 42.2516 16.9095C43.1072 14.8894 43.206 14.6846 43.3576 14.5649C43.5052 14.4484 43.5129 14.4493 43.6328 14.6012C43.7389 14.7356 44.226 15.8789 44.8712 17.5171L45.0079 17.8598L46.04 18.2842C47.9388 19.0664 48.1512 19.1662 48.271 19.3181C48.3805 19.4568 48.3789 19.4725 48.227 19.5923C48.1402 19.6609 47.4867 19.9655 46.7777 20.2717C44.8807 21.0792 45.0365 20.9913 44.8725 21.3811C44.3356 22.699 43.6399 24.1988 43.5313 24.2845C43.4055 24.3838 43.3944 24.3786 43.2403 24.1834C43.1478 24.0662 43.031 23.8557 42.9742 23.7036C42.9164 23.5591 42.6514 22.9022 42.3823 22.249L41.9008 21.0592L41.6099 20.9228C41.4489 20.8526 40.7338 20.5441 40.021 20.248C38.9554 19.8078 38.6991 19.6793 38.5861 19.5361C38.4628 19.3799 38.4585 19.3479 38.5453 19.2794L38.5454 19.2787Z" fill="url(#paint3_linear_2175_175)"/>
<defs>
<linearGradient id="paint0_linear_2175_175" x1="58.5" y1="48" x2="55.5062" y2="-4.24799" gradientUnits="userSpaceOnUse">
<stop stop-color="#9E1DF4"/>
<stop offset="0.754808" stop-color="#FB64B6"/>
</linearGradient>
<linearGradient id="paint1_linear_2175_175" x1="38.0016" y1="52.4109" x2="28.8497" y2="1.40323" gradientUnits="userSpaceOnUse">
<stop stop-color="#9E1DF4"/>
<stop offset="0.754808" stop-color="#FB64B6"/>
</linearGradient>
<linearGradient id="paint2_linear_2175_175" x1="6.64307" y1="35.8413" x2="16.1963" y2="34.4781" gradientUnits="userSpaceOnUse">
<stop stop-color="#9E1DF4"/>
<stop offset="0.754808" stop-color="#FB64B6"/>
</linearGradient>
<linearGradient id="paint3_linear_2175_175" x1="33.8969" y1="23.9136" x2="50.4009" y2="21.2045" gradientUnits="userSpaceOnUse">
<stop stop-color="#9E1DF4"/>
<stop offset="0.754808" stop-color="#FB64B6"/>
</linearGradient>
</defs>
</svg>
